<mxfile host="app.diagrams.net" modified="2022-11-12T14:13:12.924Z" agent="5.0 (Windows NT 10.0; Win64; x64) AppleWebKit/537.36 (KHTML, like Gecko) Chrome/107.0.0.0 Safari/537.36 Edg/107.0.1418.42" etag="W3I-XNGWGNUELIFqv3Tm" version="20.5.1" type="github">
  <diagram id="JKJy-jxVVxmXkAquXmc6" name="第 1 页">
    <mxGraphModel dx="1038" dy="600" grid="0" gridSize="10" guides="1" tooltips="1" connect="1" arrows="1" fold="1" page="1" pageScale="1" pageWidth="827" pageHeight="1169" math="0" shadow="0">
      <root>
        <mxCell id="0" />
        <mxCell id="1" parent="0" />
        <mxCell id="fAQQx_O7C6kunaoN7yC--114" value="" style="rounded=0;whiteSpace=wrap;html=1;" vertex="1" parent="1">
          <mxGeometry x="69" y="29" width="754" height="547" as="geometry" />
        </mxCell>
        <mxCell id="fAQQx_O7C6kunaoN7yC--36" value="商家" style="shape=umlActor;verticalLabelPosition=bottom;verticalAlign=top;html=1;outlineConnect=0;" vertex="1" parent="1">
          <mxGeometry x="95" y="50" width="18" height="48" as="geometry" />
        </mxCell>
        <mxCell id="fAQQx_O7C6kunaoN7yC--37" value="菜品信息" style="rounded=0;whiteSpace=wrap;html=1;fillColor=#fff2cc;strokeColor=#d6b656;" vertex="1" parent="1">
          <mxGeometry x="187" y="56.25" width="61" height="35.5" as="geometry" />
        </mxCell>
        <mxCell id="fAQQx_O7C6kunaoN7yC--38" value="订单信息" style="rounded=0;whiteSpace=wrap;html=1;fillColor=#fff2cc;strokeColor=#d6b656;" vertex="1" parent="1">
          <mxGeometry x="264" y="56.25" width="61" height="35.5" as="geometry" />
        </mxCell>
        <mxCell id="fAQQx_O7C6kunaoN7yC--39" value="备餐信息" style="rounded=0;whiteSpace=wrap;html=1;fillColor=#fff2cc;strokeColor=#d6b656;" vertex="1" parent="1">
          <mxGeometry x="408" y="54" width="61" height="35.5" as="geometry" />
        </mxCell>
        <mxCell id="fAQQx_O7C6kunaoN7yC--40" value="账单信息" style="rounded=0;whiteSpace=wrap;html=1;fillColor=#fff2cc;strokeColor=#d6b656;" vertex="1" parent="1">
          <mxGeometry x="504" y="54" width="61" height="35.5" as="geometry" />
        </mxCell>
        <mxCell id="fAQQx_O7C6kunaoN7yC--41" value="反馈信息" style="rounded=0;whiteSpace=wrap;html=1;fillColor=#fff2cc;strokeColor=#d6b656;" vertex="1" parent="1">
          <mxGeometry x="593" y="54" width="61" height="35.5" as="geometry" />
        </mxCell>
        <mxCell id="fAQQx_O7C6kunaoN7yC--42" value="" style="endArrow=none;dashed=1;html=1;dashPattern=1 3;strokeWidth=2;rounded=0;entryX=0.5;entryY=0;entryDx=0;entryDy=0;" edge="1" parent="1" source="fAQQx_O7C6kunaoN7yC--36" target="fAQQx_O7C6kunaoN7yC--43">
          <mxGeometry width="50" height="50" relative="1" as="geometry">
            <mxPoint x="106" y="170" as="sourcePoint" />
            <mxPoint x="86.58333333333326" y="226" as="targetPoint" />
          </mxGeometry>
        </mxCell>
        <mxCell id="fAQQx_O7C6kunaoN7yC--43" value="" style="rounded=0;whiteSpace=wrap;html=1;fillColor=#fff2cc;strokeColor=#d6b656;" vertex="1" parent="1">
          <mxGeometry x="90" y="154.25" width="28" height="299.75" as="geometry" />
        </mxCell>
        <mxCell id="fAQQx_O7C6kunaoN7yC--44" value="" style="endArrow=none;dashed=1;html=1;dashPattern=1 3;strokeWidth=2;rounded=0;exitX=0.5;exitY=1;exitDx=0;exitDy=0;" edge="1" parent="1" source="fAQQx_O7C6kunaoN7yC--43">
          <mxGeometry width="50" height="50" relative="1" as="geometry">
            <mxPoint x="99" y="454" as="sourcePoint" />
            <mxPoint x="104" y="551" as="targetPoint" />
          </mxGeometry>
        </mxCell>
        <mxCell id="fAQQx_O7C6kunaoN7yC--45" value="" style="endArrow=none;dashed=1;html=1;dashPattern=1 3;strokeWidth=2;rounded=0;entryX=0.5;entryY=0;entryDx=0;entryDy=0;exitX=0.5;exitY=1;exitDx=0;exitDy=0;" edge="1" parent="1" source="fAQQx_O7C6kunaoN7yC--37" target="fAQQx_O7C6kunaoN7yC--46">
          <mxGeometry width="50" height="50" relative="1" as="geometry">
            <mxPoint x="217.5" y="110" as="sourcePoint" />
            <mxPoint x="200.08333333333326" y="238" as="targetPoint" />
          </mxGeometry>
        </mxCell>
        <mxCell id="fAQQx_O7C6kunaoN7yC--46" value="" style="rounded=0;whiteSpace=wrap;html=1;fillColor=#fff2cc;strokeColor=#d6b656;" vertex="1" parent="1">
          <mxGeometry x="204" y="160" width="27.5" height="97" as="geometry" />
        </mxCell>
        <mxCell id="fAQQx_O7C6kunaoN7yC--47" value="" style="endArrow=none;dashed=1;html=1;dashPattern=1 3;strokeWidth=2;rounded=0;exitX=0.5;exitY=1;exitDx=0;exitDy=0;" edge="1" parent="1" source="fAQQx_O7C6kunaoN7yC--46">
          <mxGeometry width="50" height="50" relative="1" as="geometry">
            <mxPoint x="201.5" y="466" as="sourcePoint" />
            <mxPoint x="218" y="541" as="targetPoint" />
          </mxGeometry>
        </mxCell>
        <mxCell id="fAQQx_O7C6kunaoN7yC--48" value="" style="endArrow=none;dashed=1;html=1;dashPattern=1 3;strokeWidth=2;rounded=0;entryX=0.5;entryY=0;entryDx=0;entryDy=0;" edge="1" parent="1" target="fAQQx_O7C6kunaoN7yC--49">
          <mxGeometry width="50" height="50" relative="1" as="geometry">
            <mxPoint x="294.5" y="91.75" as="sourcePoint" />
            <mxPoint x="277.08333333333326" y="219.75" as="targetPoint" />
          </mxGeometry>
        </mxCell>
        <mxCell id="fAQQx_O7C6kunaoN7yC--49" value="" style="rounded=0;whiteSpace=wrap;html=1;fillColor=#fff2cc;strokeColor=#d6b656;" vertex="1" parent="1">
          <mxGeometry x="280.5" y="277" width="28" height="56" as="geometry" />
        </mxCell>
        <mxCell id="fAQQx_O7C6kunaoN7yC--50" value="" style="endArrow=none;dashed=1;html=1;dashPattern=1 3;strokeWidth=2;rounded=0;exitX=0.5;exitY=1;exitDx=0;exitDy=0;" edge="1" parent="1" source="fAQQx_O7C6kunaoN7yC--49">
          <mxGeometry width="50" height="50" relative="1" as="geometry">
            <mxPoint x="289.5" y="447.75" as="sourcePoint" />
            <mxPoint x="294.5" y="544.75" as="targetPoint" />
          </mxGeometry>
        </mxCell>
        <mxCell id="fAQQx_O7C6kunaoN7yC--51" value="" style="endArrow=none;dashed=1;html=1;dashPattern=1 3;strokeWidth=2;rounded=0;entryX=0.5;entryY=0;entryDx=0;entryDy=0;" edge="1" parent="1" target="fAQQx_O7C6kunaoN7yC--52">
          <mxGeometry width="50" height="50" relative="1" as="geometry">
            <mxPoint x="438.5" y="95.75" as="sourcePoint" />
            <mxPoint x="421.08333333333326" y="223.75" as="targetPoint" />
          </mxGeometry>
        </mxCell>
        <mxCell id="fAQQx_O7C6kunaoN7yC--52" value="" style="rounded=0;whiteSpace=wrap;html=1;fillColor=#fff2cc;strokeColor=#d6b656;" vertex="1" parent="1">
          <mxGeometry x="424.5" y="244" width="28" height="40" as="geometry" />
        </mxCell>
        <mxCell id="fAQQx_O7C6kunaoN7yC--53" value="" style="endArrow=none;dashed=1;html=1;dashPattern=1 3;strokeWidth=2;rounded=0;exitX=0.5;exitY=1;exitDx=0;exitDy=0;" edge="1" parent="1" source="fAQQx_O7C6kunaoN7yC--52">
          <mxGeometry width="50" height="50" relative="1" as="geometry">
            <mxPoint x="433.5" y="451.75" as="sourcePoint" />
            <mxPoint x="438.5" y="548.75" as="targetPoint" />
          </mxGeometry>
        </mxCell>
        <mxCell id="fAQQx_O7C6kunaoN7yC--54" value="" style="endArrow=none;dashed=1;html=1;dashPattern=1 3;strokeWidth=2;rounded=0;entryX=0.5;entryY=0;entryDx=0;entryDy=0;" edge="1" parent="1" target="fAQQx_O7C6kunaoN7yC--55">
          <mxGeometry width="50" height="50" relative="1" as="geometry">
            <mxPoint x="534.5" y="95.75" as="sourcePoint" />
            <mxPoint x="517.0833333333333" y="223.75" as="targetPoint" />
          </mxGeometry>
        </mxCell>
        <mxCell id="fAQQx_O7C6kunaoN7yC--55" value="" style="rounded=0;whiteSpace=wrap;html=1;fillColor=#fff2cc;strokeColor=#d6b656;" vertex="1" parent="1">
          <mxGeometry x="520.5" y="209.75" width="28" height="184" as="geometry" />
        </mxCell>
        <mxCell id="fAQQx_O7C6kunaoN7yC--56" value="" style="endArrow=none;dashed=1;html=1;dashPattern=1 3;strokeWidth=2;rounded=0;exitX=0.5;exitY=1;exitDx=0;exitDy=0;" edge="1" parent="1" source="fAQQx_O7C6kunaoN7yC--55">
          <mxGeometry width="50" height="50" relative="1" as="geometry">
            <mxPoint x="529.5" y="451.75" as="sourcePoint" />
            <mxPoint x="534.5" y="548.75" as="targetPoint" />
          </mxGeometry>
        </mxCell>
        <mxCell id="fAQQx_O7C6kunaoN7yC--57" value="" style="endArrow=none;dashed=1;html=1;dashPattern=1 3;strokeWidth=2;rounded=0;entryX=0.5;entryY=0;entryDx=0;entryDy=0;" edge="1" parent="1" target="fAQQx_O7C6kunaoN7yC--58">
          <mxGeometry width="50" height="50" relative="1" as="geometry">
            <mxPoint x="623.5" y="91.75" as="sourcePoint" />
            <mxPoint x="606.0833333333333" y="219.75" as="targetPoint" />
          </mxGeometry>
        </mxCell>
        <mxCell id="fAQQx_O7C6kunaoN7yC--58" value="" style="rounded=0;whiteSpace=wrap;html=1;fillColor=#fff2cc;strokeColor=#d6b656;" vertex="1" parent="1">
          <mxGeometry x="609.5" y="396" width="28" height="22.75" as="geometry" />
        </mxCell>
        <mxCell id="fAQQx_O7C6kunaoN7yC--59" value="" style="endArrow=none;dashed=1;html=1;dashPattern=1 3;strokeWidth=2;rounded=0;exitX=0.5;exitY=1;exitDx=0;exitDy=0;" edge="1" parent="1" source="fAQQx_O7C6kunaoN7yC--58">
          <mxGeometry width="50" height="50" relative="1" as="geometry">
            <mxPoint x="618.5" y="447.75" as="sourcePoint" />
            <mxPoint x="623.5" y="544.75" as="targetPoint" />
          </mxGeometry>
        </mxCell>
        <mxCell id="fAQQx_O7C6kunaoN7yC--63" value="showMealInfo(mealId)" style="text;html=1;strokeColor=none;fillColor=none;align=center;verticalAlign=middle;whiteSpace=wrap;rounded=0;" vertex="1" parent="1">
          <mxGeometry x="178" y="291.5" width="60" height="26" as="geometry" />
        </mxCell>
        <mxCell id="fAQQx_O7C6kunaoN7yC--66" value="" style="endArrow=classic;html=1;rounded=0;" edge="1" parent="1">
          <mxGeometry width="50" height="50" relative="1" as="geometry">
            <mxPoint x="322" y="325" as="sourcePoint" />
            <mxPoint x="514.5" y="325" as="targetPoint" />
          </mxGeometry>
        </mxCell>
        <mxCell id="fAQQx_O7C6kunaoN7yC--67" value="generateBill(billId)" style="text;html=1;strokeColor=none;fillColor=none;align=center;verticalAlign=middle;whiteSpace=wrap;rounded=0;" vertex="1" parent="1">
          <mxGeometry x="364.5" y="302" width="60" height="26" as="geometry" />
        </mxCell>
        <mxCell id="fAQQx_O7C6kunaoN7yC--69" value="showComment()" style="text;html=1;strokeColor=none;fillColor=none;align=center;verticalAlign=middle;whiteSpace=wrap;rounded=0;" vertex="1" parent="1">
          <mxGeometry x="343" y="389.75" width="60" height="26" as="geometry" />
        </mxCell>
        <mxCell id="fAQQx_O7C6kunaoN7yC--71" value="" style="endArrow=classic;html=1;rounded=0;" edge="1" parent="1">
          <mxGeometry width="50" height="50" relative="1" as="geometry">
            <mxPoint x="202.5" y="171" as="sourcePoint" />
            <mxPoint x="124.5" y="171" as="targetPoint" />
          </mxGeometry>
        </mxCell>
        <mxCell id="fAQQx_O7C6kunaoN7yC--72" value="showAllMeal()" style="text;html=1;strokeColor=none;fillColor=none;align=center;verticalAlign=middle;whiteSpace=wrap;rounded=0;" vertex="1" parent="1">
          <mxGeometry x="135" y="152" width="60" height="17" as="geometry" />
        </mxCell>
        <mxCell id="fAQQx_O7C6kunaoN7yC--76" value="" style="endArrow=classic;html=1;rounded=0;" edge="1" parent="1">
          <mxGeometry width="50" height="50" relative="1" as="geometry">
            <mxPoint x="127.5" y="199" as="sourcePoint" />
            <mxPoint x="200" y="199" as="targetPoint" />
          </mxGeometry>
        </mxCell>
        <mxCell id="fAQQx_O7C6kunaoN7yC--79" value="addMeal(mealId)" style="text;html=1;strokeColor=none;fillColor=none;align=center;verticalAlign=middle;whiteSpace=wrap;rounded=0;" vertex="1" parent="1">
          <mxGeometry x="135" y="175" width="60" height="18" as="geometry" />
        </mxCell>
        <mxCell id="fAQQx_O7C6kunaoN7yC--82" value="" style="endArrow=classic;html=1;rounded=0;" edge="1" parent="1">
          <mxGeometry width="50" height="50" relative="1" as="geometry">
            <mxPoint x="124" y="228.75" as="sourcePoint" />
            <mxPoint x="200" y="229" as="targetPoint" />
          </mxGeometry>
        </mxCell>
        <mxCell id="fAQQx_O7C6kunaoN7yC--83" value="changeMeal(mealId)" style="text;html=1;strokeColor=none;fillColor=none;align=center;verticalAlign=middle;whiteSpace=wrap;rounded=0;" vertex="1" parent="1">
          <mxGeometry x="135" y="204" width="60" height="18" as="geometry" />
        </mxCell>
        <mxCell id="fAQQx_O7C6kunaoN7yC--85" value="" style="endArrow=classic;html=1;rounded=0;" edge="1" parent="1">
          <mxGeometry width="50" height="50" relative="1" as="geometry">
            <mxPoint x="124" y="255" as="sourcePoint" />
            <mxPoint x="200" y="255" as="targetPoint" />
          </mxGeometry>
        </mxCell>
        <mxCell id="fAQQx_O7C6kunaoN7yC--86" value="delMeal(mealId)" style="text;html=1;strokeColor=none;fillColor=none;align=center;verticalAlign=middle;whiteSpace=wrap;rounded=0;" vertex="1" parent="1">
          <mxGeometry x="139" y="236" width="60" height="18" as="geometry" />
        </mxCell>
        <mxCell id="fAQQx_O7C6kunaoN7yC--90" value="" style="endArrow=classic;html=1;rounded=0;" edge="1" parent="1">
          <mxGeometry width="50" height="50" relative="1" as="geometry">
            <mxPoint x="271.5" y="317.5" as="sourcePoint" />
            <mxPoint x="139" y="317.5" as="targetPoint" />
          </mxGeometry>
        </mxCell>
        <mxCell id="fAQQx_O7C6kunaoN7yC--91" value="" style="endArrow=classic;html=1;rounded=0;" edge="1" parent="1">
          <mxGeometry width="50" height="50" relative="1" as="geometry">
            <mxPoint x="607" y="410" as="sourcePoint" />
            <mxPoint x="131" y="410" as="targetPoint" />
          </mxGeometry>
        </mxCell>
        <mxCell id="fAQQx_O7C6kunaoN7yC--94" value="" style="endArrow=classic;html=1;rounded=0;" edge="1" parent="1">
          <mxGeometry width="50" height="50" relative="1" as="geometry">
            <mxPoint x="128" y="268" as="sourcePoint" />
            <mxPoint x="417" y="268" as="targetPoint" />
          </mxGeometry>
        </mxCell>
        <mxCell id="fAQQx_O7C6kunaoN7yC--95" value="updatePreInfo()" style="text;html=1;strokeColor=none;fillColor=none;align=center;verticalAlign=middle;whiteSpace=wrap;rounded=0;" vertex="1" parent="1">
          <mxGeometry x="258" y="244" width="60" height="26" as="geometry" />
        </mxCell>
        <mxCell id="fAQQx_O7C6kunaoN7yC--96" value="仓储信息" style="rounded=0;whiteSpace=wrap;html=1;fillColor=#fff2cc;strokeColor=#d6b656;" vertex="1" parent="1">
          <mxGeometry x="677" y="54" width="61" height="35.5" as="geometry" />
        </mxCell>
        <mxCell id="fAQQx_O7C6kunaoN7yC--97" value="" style="endArrow=none;dashed=1;html=1;dashPattern=1 3;strokeWidth=2;rounded=0;entryX=0.5;entryY=0;entryDx=0;entryDy=0;" edge="1" parent="1" target="fAQQx_O7C6kunaoN7yC--98">
          <mxGeometry width="50" height="50" relative="1" as="geometry">
            <mxPoint x="707.5" y="91.75" as="sourcePoint" />
            <mxPoint x="690.0833333333333" y="219.75" as="targetPoint" />
          </mxGeometry>
        </mxCell>
        <mxCell id="fAQQx_O7C6kunaoN7yC--98" value="" style="rounded=0;whiteSpace=wrap;html=1;fillColor=#fff2cc;strokeColor=#d6b656;" vertex="1" parent="1">
          <mxGeometry x="693.5" y="426" width="28" height="22.75" as="geometry" />
        </mxCell>
        <mxCell id="fAQQx_O7C6kunaoN7yC--99" value="" style="endArrow=none;dashed=1;html=1;dashPattern=1 3;strokeWidth=2;rounded=0;exitX=0.5;exitY=1;exitDx=0;exitDy=0;" edge="1" parent="1" source="fAQQx_O7C6kunaoN7yC--98">
          <mxGeometry width="50" height="50" relative="1" as="geometry">
            <mxPoint x="702.5" y="447.75" as="sourcePoint" />
            <mxPoint x="707.5" y="544.75" as="targetPoint" />
          </mxGeometry>
        </mxCell>
        <mxCell id="fAQQx_O7C6kunaoN7yC--100" value="" style="endArrow=classic;html=1;rounded=0;" edge="1" parent="1">
          <mxGeometry width="50" height="50" relative="1" as="geometry">
            <mxPoint x="139" y="441.25" as="sourcePoint" />
            <mxPoint x="688" y="441" as="targetPoint" />
          </mxGeometry>
        </mxCell>
        <mxCell id="fAQQx_O7C6kunaoN7yC--101" value="updateStorageInfo()" style="text;html=1;strokeColor=none;fillColor=none;align=center;verticalAlign=middle;whiteSpace=wrap;rounded=0;" vertex="1" parent="1">
          <mxGeometry x="336" y="420.75" width="60" height="26" as="geometry" />
        </mxCell>
        <mxCell id="fAQQx_O7C6kunaoN7yC--107" value="数据库" style="rounded=0;whiteSpace=wrap;html=1;fillColor=#fff2cc;strokeColor=#d6b656;" vertex="1" parent="1">
          <mxGeometry x="757" y="54" width="61" height="35.5" as="geometry" />
        </mxCell>
        <mxCell id="fAQQx_O7C6kunaoN7yC--108" value="" style="endArrow=none;dashed=1;html=1;dashPattern=1 3;strokeWidth=2;rounded=0;entryX=0.5;entryY=0;entryDx=0;entryDy=0;" edge="1" parent="1" target="fAQQx_O7C6kunaoN7yC--109">
          <mxGeometry width="50" height="50" relative="1" as="geometry">
            <mxPoint x="787.5" y="91.75" as="sourcePoint" />
            <mxPoint x="770.0833333333333" y="219.75" as="targetPoint" />
          </mxGeometry>
        </mxCell>
        <mxCell id="fAQQx_O7C6kunaoN7yC--109" value="" style="rounded=0;whiteSpace=wrap;html=1;fillColor=#fff2cc;strokeColor=#d6b656;" vertex="1" parent="1">
          <mxGeometry x="773.5" y="324" width="28" height="24" as="geometry" />
        </mxCell>
        <mxCell id="fAQQx_O7C6kunaoN7yC--110" value="" style="endArrow=none;dashed=1;html=1;dashPattern=1 3;strokeWidth=2;rounded=0;exitX=0.5;exitY=1;exitDx=0;exitDy=0;" edge="1" parent="1" source="fAQQx_O7C6kunaoN7yC--109">
          <mxGeometry width="50" height="50" relative="1" as="geometry">
            <mxPoint x="782.5" y="447.75" as="sourcePoint" />
            <mxPoint x="788" y="544" as="targetPoint" />
          </mxGeometry>
        </mxCell>
        <mxCell id="fAQQx_O7C6kunaoN7yC--111" value="" style="endArrow=classic;html=1;rounded=0;" edge="1" parent="1">
          <mxGeometry width="50" height="50" relative="1" as="geometry">
            <mxPoint x="569" y="339" as="sourcePoint" />
            <mxPoint x="761.5" y="339" as="targetPoint" />
          </mxGeometry>
        </mxCell>
        <mxCell id="fAQQx_O7C6kunaoN7yC--112" value="updateDB()" style="text;html=1;strokeColor=none;fillColor=none;align=center;verticalAlign=middle;whiteSpace=wrap;rounded=0;" vertex="1" parent="1">
          <mxGeometry x="637.5" y="310" width="60" height="26" as="geometry" />
        </mxCell>
      </root>
    </mxGraphModel>
  </diagram>
</mxfile>
